<svg width="134" height="40" viewBox="0 0 134 40" fill="none" xmlns="http://www.w3.org/2000/svg">
<path d="M124.541 0H9.48529C9.11017 0 8.76184 0 8.38672 0C8.09198 0 7.77044 0 7.4757 0C6.80583 0.0267023 6.13597 0.0534045 5.4929 0.186916C4.82304 0.293725 4.20676 0.507343 3.61728 0.801068C3.02779 1.09479 2.4919 1.49533 2.0096 1.97597C1.52729 2.45661 1.15216 2.99065 0.830627 3.5781C0.509092 4.19226 0.321532 4.80641 0.214354 5.44726C0.107175 6.11482 0.0535827 6.75567 0.0267881 7.42323C0.0267881 7.71696 0.0267946 8.03738 0 8.33111C0 8.67824 0 9.05207 0 9.3992V30.6008C0 30.9746 0 31.3218 0 31.6689C0 31.9626 -6.54206e-06 32.283 0.0267881 32.5768C0.0535827 33.2443 0.0803807 33.9119 0.214354 34.5527C0.321532 35.2203 0.535886 35.8344 0.830627 36.4219C1.12537 37.0093 1.52729 37.5434 2.0096 38.024C2.4919 38.5047 3.02779 38.8785 3.61728 39.1989C4.23355 39.5194 4.84983 39.7063 5.4929 39.8131C6.16277 39.9199 6.83262 39.9733 7.4757 40C7.77044 40 8.09198 40 8.38672 40C8.76184 40 9.11017 40 9.48529 40H124.541C124.89 40 125.265 40 125.613 40C125.908 40 126.23 40 126.524 40C127.194 39.9733 127.864 39.9466 128.507 39.8131C129.177 39.7063 129.793 39.4927 130.41 39.1989C130.999 38.9052 131.535 38.5047 132.017 38.024C132.499 37.5701 132.875 37.0093 133.196 36.4219C133.491 35.8344 133.705 35.1936 133.812 34.5527C133.946 33.8852 133.973 33.2443 134 32.5768C134 32.283 134 31.9626 134 31.6689C134 31.3218 134 30.9479 134 30.6008V9.4259C134 9.05207 134 8.70494 134 8.35781C134 8.06409 134 7.74366 134 7.44993C133.973 6.78238 133.946 6.11482 133.812 5.47397C133.705 4.80641 133.491 4.19226 133.196 3.60481C132.901 3.01736 132.499 2.48331 132.017 2.00267C131.562 1.52203 130.999 1.1482 130.41 0.82777C129.793 0.534045 129.177 0.320427 128.507 0.213618C127.864 0.106809 127.194 0.0534045 126.524 0.0267023C126.23 0.0267023 125.908 0.0267023 125.613 0.0267023C125.265 0 124.917 0 124.541 0Z" fill="#A6A6A6"/>
<path d="M8.41365 39.1991C8.11891 39.1991 7.82417 39.1991 7.52943 39.1991C6.96674 39.1724 6.32366 39.1457 5.68059 39.0389C5.06431 38.9321 4.52843 38.7452 4.04612 38.5049C3.53703 38.2379 3.05472 37.9174 2.6528 37.4902C2.25088 37.0897 1.90255 36.6357 1.63461 36.1017C1.36666 35.5943 1.20589 35.0603 1.09871 34.4728C0.964741 33.8053 0.937953 33.1377 0.937953 32.6304C0.937953 32.4168 0.911148 31.7225 0.911148 31.7225V8.35803C0.911148 8.35803 0.911158 7.66377 0.937953 7.47685C0.937953 6.96951 0.991535 6.27525 1.09871 5.6344C1.20589 5.02025 1.39345 4.4862 1.63461 3.97886C1.90255 3.47151 2.22409 2.99087 2.6528 2.59034C3.05472 2.1898 3.53703 1.84268 4.04612 1.57565C4.55522 1.30863 5.09111 1.14842 5.68059 1.04161C6.35046 0.934798 7.02033 0.881393 7.52943 0.881393H8.41365H125.64H126.551C127.06 0.881393 127.73 0.934798 128.4 1.04161C128.99 1.14842 129.525 1.33533 130.061 1.57565C130.57 1.84268 131.026 2.1631 131.455 2.59034C131.857 2.99087 132.205 3.44481 132.473 3.97886C132.741 4.4862 132.902 5.02025 133.009 5.6077C133.116 6.22185 133.17 6.8627 133.17 7.47685C133.17 7.74388 133.17 8.0643 133.17 8.35803C133.17 8.73186 133.17 9.07899 133.17 9.42612V30.6277C133.17 30.9748 133.17 31.3487 133.17 31.6958C133.17 32.0162 133.17 32.31 133.17 32.6037C133.143 33.1911 133.116 33.832 133.009 34.4461C132.902 35.0603 132.741 35.5943 132.473 36.1017C132.205 36.609 131.857 37.0897 131.455 37.4635C131.053 37.864 130.57 38.2112 130.061 38.4782C129.552 38.7452 129.016 38.9054 128.4 39.0122C127.757 39.119 127.114 39.1457 126.551 39.1724C126.256 39.1724 125.962 39.1724 125.667 39.1724H124.595L8.41365 39.1991Z" fill="black"/>
<path d="M49.7576 27.0499H45.0417L43.8895 30.1741H41.8264L46.435 18.4518H48.391L53.1069 30.1741H50.9365L49.7576 27.0499ZM45.6312 25.4478H49.1413L47.8819 22.0833C47.7212 21.6294 47.5336 21.0953 47.3728 20.5346C47.2121 21.0419 47.0513 21.5493 46.8905 22.0566L45.6312 25.4478Z" fill="white"/>
<path d="M53.9376 23.5788C53.9376 22.9379 53.9108 22.2169 53.884 21.4426H55.7596C55.84 21.8164 55.8668 22.1635 55.8936 22.5374C56.6706 21.6829 57.5548 21.2557 58.573 21.2557C59.1625 21.2557 59.6984 21.3892 60.2075 21.6829C60.7166 21.9766 61.1185 22.4306 61.4133 23.0714C61.708 23.7123 61.8688 24.5133 61.8688 25.4746C61.8688 26.4893 61.6812 27.3705 61.3329 28.0914C60.9845 28.8124 60.5022 29.3732 59.8592 29.7203C59.2429 30.0941 58.5194 30.281 57.6888 30.281C57.0993 30.281 56.5098 30.1742 55.9204 29.9873V33.6455L53.9108 33.8057V23.5788H53.9376ZM59.2161 28.038C59.618 27.504 59.8324 26.7029 59.8324 25.6348C59.8324 24.6469 59.6716 23.9526 59.3233 23.5254C58.9749 23.0981 58.5462 22.8578 57.9835 22.8578C57.5816 22.8578 57.2333 22.9379 56.9118 23.1248C56.5902 23.3117 56.2687 23.5521 55.9739 23.8725V28.5454C56.1615 28.6522 56.4027 28.7323 56.6706 28.7857C56.9386 28.8391 57.2065 28.8658 57.4477 28.8658C58.1979 28.8658 58.7874 28.5988 59.2161 28.038Z" fill="white"/>
<path d="M63.0745 23.5788C63.0745 22.9379 63.0477 22.2169 63.0209 21.4426H64.8965C64.9769 21.8164 65.0037 22.1635 65.0305 22.5374C65.8075 21.6829 66.6918 21.2557 67.7099 21.2557C68.2994 21.2557 68.8353 21.3892 69.3444 21.6829C69.8535 21.9766 70.2554 22.4306 70.5502 23.0714C70.8449 23.7123 71.0057 24.5133 71.0057 25.4746C71.0057 26.4893 70.8181 27.3705 70.4698 28.0914C70.1215 28.8124 69.6392 29.3732 68.9961 29.7203C68.3798 30.0941 67.6564 30.281 66.8257 30.281C66.2362 30.281 65.6468 30.1742 65.0573 29.9873V33.6455L63.0477 33.8057V23.5788H63.0745ZM68.353 28.038C68.7549 27.504 68.9693 26.7029 68.9693 25.6348C68.9693 24.6469 68.8085 23.9526 68.4602 23.5254C68.1119 23.0981 67.6832 22.8578 67.1205 22.8578C66.7186 22.8578 66.3702 22.9379 66.0487 23.1248C65.7272 23.3117 65.4056 23.5521 65.1109 23.8725V28.5454C65.2984 28.6522 65.5396 28.7323 65.8075 28.7857C66.0755 28.8391 66.3434 28.8658 66.5846 28.8658C67.3348 28.8658 67.9511 28.5988 68.353 28.038Z" fill="white"/>
<path d="M74.6765 29.6129C73.8191 29.1323 73.1493 28.4647 72.6937 27.5568C72.2382 26.6756 71.9971 25.6076 71.9971 24.406C71.9971 23.0975 72.265 21.9761 72.8009 21.0682C73.3368 20.1603 74.0603 19.466 74.9981 19.0121C75.9091 18.5582 76.9541 18.3178 78.1063 18.3178C78.7761 18.3178 79.4192 18.3979 80.0355 18.5315C80.6518 18.6917 81.2144 18.8786 81.7503 19.1456L81.2412 20.6943C80.1694 20.187 79.1513 19.9467 78.1867 19.9467C77.3828 19.9467 76.6594 20.1336 76.0431 20.4807C75.4268 20.8279 74.9445 21.3352 74.623 22.0028C74.2746 22.6703 74.1139 23.4981 74.1139 24.4327C74.1139 25.2604 74.2478 26.0081 74.5158 26.6489C74.7837 27.2898 75.1856 27.7971 75.7483 28.1977C76.311 28.5715 77.0345 28.7584 77.8919 28.7584C78.2938 28.7584 78.669 28.7317 79.0709 28.6516C79.4728 28.5715 79.8211 28.4914 80.1694 28.3579V25.9814H77.4632V24.4327H82.1255V29.3726C81.4556 29.693 80.7589 29.9333 80.0087 30.0935C79.2584 30.2538 78.535 30.3339 77.8115 30.3339C76.579 30.3339 75.5608 30.0935 74.6765 29.6129Z" fill="white"/>
<path d="M89.1725 30.1742C89.0921 29.827 89.0653 29.4532 89.0386 29.026C88.717 29.3998 88.3419 29.6935 87.8328 29.9605C87.3505 30.2276 86.7878 30.3344 86.1447 30.3344C85.6356 30.3344 85.1801 30.2276 84.7782 30.0406C84.3763 29.8537 84.0279 29.56 83.7868 29.1595C83.5456 28.7589 83.4117 28.2783 83.4117 27.7175C83.4117 26.8631 83.7064 26.1955 84.3227 25.6882C84.9389 25.1808 85.9572 24.9405 87.3773 24.9405C87.9132 24.9405 88.4491 24.9672 88.9582 25.0473V24.8871C88.9582 24.1127 88.7974 23.5787 88.4759 23.2583C88.1543 22.9378 87.672 22.7776 87.0557 22.7776C86.627 22.7776 86.1715 22.831 85.6892 22.9645C85.2069 23.0981 84.7782 23.2316 84.4031 23.4185L84.0815 21.9766C84.4299 21.8163 84.9122 21.6561 85.5016 21.5226C86.0911 21.3891 86.7074 21.309 87.3505 21.309C88.1007 21.309 88.7438 21.4158 89.2797 21.6561C89.8156 21.8965 90.2175 22.2703 90.5123 22.831C90.807 23.3918 90.9678 24.1394 90.9678 25.074V28.5453C90.9678 28.9191 90.9946 29.4532 91.0214 30.1742H89.1725ZM87.9935 28.5453C88.4223 28.3584 88.7438 28.0914 89.0117 27.7977V26.1688C88.4759 26.1154 88.0203 26.0887 87.672 26.0887C86.8414 26.0887 86.2787 26.2222 85.9572 26.4892C85.6356 26.7563 85.4749 27.1034 85.4749 27.5573C85.4749 27.9846 85.582 28.305 85.8232 28.5186C86.0643 28.7322 86.3591 28.839 86.761 28.839C87.1629 28.8657 87.5648 28.7589 87.9935 28.5453Z" fill="white"/>
<path d="M92.5486 28.0911V17.784L94.5314 17.6238V27.7439C94.5314 28.1178 94.585 28.3848 94.719 28.545C94.8529 28.7052 95.0405 28.7853 95.3353 28.7853C95.4692 28.7853 95.63 28.7586 95.8712 28.7052L96.1123 30.1471C95.9247 30.2272 95.6836 30.2806 95.4156 30.334C95.1477 30.3874 94.8797 30.4142 94.6386 30.4142C93.2452 30.334 92.5486 29.5864 92.5486 28.0911Z" fill="white"/>
<path d="M97.5325 28.0911V17.784L99.5153 17.6238V27.7439C99.5153 28.1178 99.5689 28.3848 99.7028 28.545C99.8368 28.7052 100.024 28.7853 100.319 28.7853C100.453 28.7853 100.614 28.7586 100.855 28.7052L101.096 30.1471C100.909 30.2272 100.667 30.2806 100.399 30.334C100.132 30.3874 99.8636 30.4142 99.6225 30.4142C98.2291 30.334 97.5325 29.5864 97.5325 28.0911Z" fill="white"/>
<path d="M109.295 26.0621H103.561C103.642 27.8778 104.526 28.8124 106.187 28.8124C106.589 28.8124 107.018 28.759 107.446 28.6522C107.875 28.5454 108.277 28.4119 108.679 28.2517L109.108 29.6135C108.116 30.0941 107.018 30.3344 105.812 30.3344C104.874 30.3344 104.097 30.1475 103.454 29.8004C102.811 29.4533 102.329 28.9459 102.007 28.2784C101.686 27.6108 101.525 26.8364 101.525 25.9019C101.525 24.9406 101.686 24.1128 102.034 23.4185C102.382 22.7243 102.838 22.1902 103.454 21.8164C104.07 21.4426 104.767 21.2557 105.571 21.2557C106.401 21.2557 107.098 21.4426 107.634 21.8431C108.197 22.2169 108.599 22.751 108.867 23.3918C109.134 24.0327 109.268 24.7537 109.268 25.528V26.0621H109.295ZM107.339 24.8071C107.312 24.1128 107.125 23.5788 106.803 23.2316C106.482 22.8845 106.08 22.6976 105.544 22.6976C105.035 22.6976 104.606 22.8845 104.285 23.2316C103.936 23.5788 103.722 24.1128 103.615 24.7804H107.339V24.8071Z" fill="white"/>
<path d="M110.796 23.6321C110.796 23.1515 110.769 22.4305 110.742 21.4425H112.618C112.645 21.6828 112.671 21.9766 112.698 22.3237C112.725 22.6708 112.752 22.9378 112.752 23.1515C112.993 22.7776 113.207 22.4572 113.448 22.1902C113.663 21.9232 113.931 21.7095 114.225 21.5493C114.52 21.3891 114.869 21.309 115.244 21.309C115.565 21.309 115.806 21.3357 116.048 21.4158L115.806 23.1515C115.619 23.0981 115.404 23.0714 115.163 23.0714C114.681 23.0714 114.279 23.1782 113.931 23.4185C113.582 23.6588 113.207 24.0593 112.805 24.5934V30.2009H110.823V23.6321H110.796Z" fill="white"/>
<path d="M117.173 33.7519C116.878 33.6985 116.637 33.6451 116.449 33.565L116.825 32.1231C116.959 32.1498 117.119 32.2032 117.334 32.2299C117.548 32.2566 117.736 32.2833 117.923 32.2833C118.807 32.2833 119.477 31.7226 119.906 30.5744L120.04 30.2539L116.825 21.4689H118.968L120.603 26.3821C120.871 27.2099 121.031 27.8774 121.112 28.3047C121.272 27.6638 121.433 27.0497 121.648 26.4088L123.282 21.4422H125.292L122.076 30.2806C121.782 31.1084 121.433 31.8027 121.085 32.31C120.737 32.8174 120.308 33.1912 119.852 33.4582C119.37 33.6985 118.807 33.832 118.111 33.832C117.789 33.832 117.468 33.8053 117.173 33.7519Z" fill="white"/>
<path d="M41.8264 7.31656H45.3901L45.2829 8.17103H42.8714V9.82657H45.1489V10.6276H42.8714V12.4701H45.4169L45.3365 13.3246H41.8264V7.31656Z" fill="white"/>
<path d="M47.8552 10.2805L45.9796 7.31656H47.1585L48.4447 9.47944L49.7844 7.31656H50.9366L49.0609 10.2271L51.0705 13.3513H49.8648L48.4179 10.9748L46.9442 13.3513H45.792L47.8552 10.2805Z" fill="white"/>
<path d="M51.8476 7.31656H53.482C54.2591 7.31656 54.8486 7.47677 55.2505 7.7972C55.6524 8.11763 55.8668 8.57156 55.8668 9.15901C55.8668 9.55955 55.7864 9.90668 55.5988 10.2004C55.4113 10.4941 55.1701 10.7344 54.8218 10.8947C54.5002 11.0549 54.1251 11.135 53.6964 11.135C53.4552 11.135 53.1873 11.1083 52.8925 11.0549V13.3513H51.8476V7.31656ZM54.4734 10.0135C54.6878 9.79987 54.795 9.53285 54.795 9.15901C54.795 8.78518 54.6878 8.51816 54.4466 8.35795C54.2323 8.19773 53.884 8.11763 53.4552 8.11763H52.8925V10.2538C53.1605 10.3072 53.3481 10.3072 53.482 10.3072C53.9375 10.3072 54.2591 10.2004 54.4734 10.0135Z" fill="white"/>
<path d="M56.9118 7.31656H57.9568V12.4701H60.4754L60.3951 13.3513H56.9386V7.31656H56.9118Z" fill="white"/>
<path d="M62.0562 13.0578C61.6007 12.8175 61.2792 12.4436 61.038 11.9897C60.7969 11.5358 60.6897 11.0017 60.6897 10.3876C60.6897 9.74671 60.8237 9.18596 61.0648 8.70532C61.306 8.22468 61.6811 7.85085 62.1366 7.61053C62.6189 7.3435 63.1548 7.20999 63.7979 7.20999C64.4142 7.20999 64.9233 7.3435 65.3788 7.58382C65.8075 7.82414 66.1558 8.19798 66.397 8.65191C66.6381 9.10585 66.7453 9.6399 66.7453 10.2273C66.7453 10.8682 66.6113 11.4289 66.3702 11.9096C66.129 12.3902 65.7539 12.7641 65.2984 13.0044C64.8429 13.2714 64.2802 13.4049 63.6639 13.4049C63.0209 13.4316 62.485 13.2981 62.0562 13.0578ZM64.7625 12.3101C65.0572 12.1232 65.2716 11.8562 65.4324 11.5091C65.5663 11.1619 65.6467 10.7614 65.6467 10.3342C65.6467 9.90692 65.5931 9.50639 65.4592 9.18596C65.3252 8.83883 65.1376 8.57181 64.8429 8.38489C64.5482 8.17127 64.1998 8.09117 63.7443 8.09117C63.3156 8.09117 62.9673 8.19797 62.6725 8.38489C62.3778 8.59851 62.1634 8.86553 62.0027 9.21266C61.8419 9.55979 61.7883 9.93362 61.7883 10.3609C61.7883 10.7881 61.8687 11.1886 62.0027 11.5358C62.1366 11.8829 62.351 12.1499 62.6457 12.3635C62.9405 12.5771 63.2888 12.6573 63.7175 12.6573C64.1194 12.6038 64.4678 12.5237 64.7625 12.3101Z" fill="white"/>
<path d="M67.8976 7.31656H69.8001C70.4968 7.31656 71.0058 7.45007 71.381 7.71709C71.7561 7.98412 71.9169 8.38465 71.9169 8.89199C71.9169 9.21242 71.8633 9.50614 71.7293 9.74646C71.5953 9.98678 71.4346 10.2004 71.247 10.3339C71.0594 10.4941 70.8719 10.6009 70.6575 10.681L72.5331 13.3513H71.3006L69.7197 10.9481H68.9426V13.3513H67.8976V7.31656ZM69.5321 10.1737C69.7733 10.1737 70.0144 10.1203 70.202 10.0135C70.3896 9.90668 70.5503 9.77317 70.6575 9.58625C70.7647 9.39934 70.8183 9.18572 70.8183 8.9721C70.8183 8.67837 70.7111 8.43805 70.5235 8.30454C70.336 8.17103 70.0412 8.09092 69.6929 8.09092H68.9426V10.147H69.5321V10.1737Z" fill="white"/>
<path d="M73.3369 7.31656H76.9006L76.7934 8.17103H74.3819V9.82657H76.6594V10.6276H74.3819V12.4701H76.9274L76.847 13.3246H73.3369V7.31656Z" fill="white"/>
<path d="M80.7858 7.31656H81.8308V13.3513H80.7858V7.31656Z" fill="white"/>
<path d="M84.6174 8.17112H82.7417L82.8221 7.28995H87.5379L87.4308 8.17112H85.6355V13.3514H84.5906V8.17112H84.6174Z" fill="white"/>
<path d="M92.0931 13.0578C91.6376 12.8175 91.3161 12.4436 91.0749 11.9897C90.8338 11.5358 90.7266 11.0017 90.7266 10.3876C90.7266 9.74671 90.8606 9.18596 91.1017 8.70532C91.3429 8.22468 91.718 7.85085 92.1735 7.61053C92.6558 7.3435 93.1917 7.20999 93.8348 7.20999C94.451 7.20999 94.9601 7.3435 95.4157 7.58382C95.8444 7.82414 96.1927 8.19798 96.4338 8.65191C96.675 9.10585 96.7822 9.6399 96.7822 10.2273C96.7822 10.8682 96.6482 11.4289 96.4071 11.9096C96.1659 12.3902 95.7908 12.7641 95.3353 13.0044C94.8798 13.2714 94.3171 13.4049 93.7008 13.4049C93.0577 13.4316 92.5218 13.2981 92.0931 13.0578ZM94.7994 12.3101C95.0941 12.1232 95.3085 11.8562 95.4692 11.5091C95.6032 11.1619 95.6836 10.7614 95.6836 10.3342C95.6836 9.90692 95.63 9.50639 95.496 9.18596C95.3621 8.83883 95.1745 8.57181 94.8798 8.38489C94.585 8.17127 94.2367 8.09117 93.7812 8.09117C93.3525 8.09117 93.0042 8.19797 92.7094 8.38489C92.4147 8.59851 92.2003 8.86553 92.0395 9.21266C91.8788 9.55979 91.8252 9.93362 91.8252 10.3609C91.8252 10.7881 91.9056 11.1886 92.0395 11.5358C92.1735 11.8829 92.3879 12.1499 92.6826 12.3635C92.9773 12.5771 93.3257 12.6573 93.7544 12.6573C94.1295 12.6038 94.5046 12.5237 94.7994 12.3101Z" fill="white"/>
<path d="M97.9344 7.31656H99.1402L102.141 11.9895C102.114 11.5355 102.114 11.135 102.114 10.7611V7.31656H103.079V13.3513H101.927L98.8722 8.59827C98.899 9.13231 98.9258 9.61295 98.9258 10.0402V13.3513H97.9612V7.31656H97.9344Z" fill="white"/>
<path fill-rule="evenodd" clip-rule="evenodd" d="M27.0892 7.34297H15.9694C10.7177 7.34297 8.81526 9.26554 8.81526 14.4725V25.5539C8.81526 30.7876 10.7445 32.6834 15.9694 32.6834H27.0892C32.341 32.6834 34.2434 30.7609 34.2434 25.5539V14.4725C34.2702 9.26554 32.341 7.34297 27.0892 7.34297Z" fill="#C8102E"/>
<path d="M13.8528 20.027H14.5226V23.3381H13.8528V22.003H12.3255V23.3381H11.6556V20.027H12.3255V21.3621H13.8528V20.027ZM17.6576 21.9229C17.6576 22.4569 17.3897 22.7506 16.9074 22.7506C16.425 22.7506 16.1571 22.4569 16.1571 21.8962V20.027H15.4872V21.9229C15.4872 22.8574 15.9963 23.3915 16.9074 23.3915C17.8184 23.3915 18.3543 22.8574 18.3543 21.8962V20.027H17.6844V21.9229H17.6576ZM25.4549 22.2967L24.7046 20.027H24.1419L23.3917 22.2967L22.6682 20.027H21.9447L23.0969 23.3381H23.6596L24.4099 21.1485L25.1601 23.3381H25.7228L26.875 20.027H26.1783L25.4549 22.2967ZM28.1075 21.9229H29.3401V21.3087H28.1075V20.6412H29.9028V20.027H27.4644V23.3381H29.9831V22.7239H28.1343V21.9229H28.1075ZM30.7602 23.3381H31.4301V20.027H30.7602V23.3381ZM19.6672 22.6438L19.3725 23.3381H18.6758L20.1227 20.027H20.7122L22.1591 23.3381H21.4624L21.1677 22.6438H19.6672ZM19.9084 22.0564H20.9265L20.4174 20.8815L19.9084 22.0564Z" fill="white"/>
<path d="M21.5428 15.8078C19.2116 15.8078 17.3092 13.912 17.3092 11.5889H17.8987C17.8987 13.5915 19.5332 15.2204 21.5428 15.2204C23.5524 15.2204 25.1868 13.5915 25.1868 11.5889H25.7763C25.7763 13.912 23.8739 15.8078 21.5428 15.8078Z" fill="white"/>
</svg>
