<?xml version="1.0" encoding="utf-8"?>
<svg version="1.1" id="Layer_1" xmlns="http://www.w3.org/2000/svg" x="0px" y="0px"
     width="400px" height="200px" viewBox="0 0 400 200" enable-background="new 0 0 400 200" xml:space="preserve">

    <path fill="url(#gr1)" d="M175,120 c100,130 180,-30 180,-30 c0,0 -75,100 -150,-10
    M205,80 c-100,-130 -180,30 -180,30 c0,0 75,-100 150,10"/>
    <path fill="#FFC107" d="M25,115 c100,120 140,10 140,20 c0,0 0,0 -15,-25 c-20,60 -70,60 -115,15"/>
    <text fill="#2E9F33" font-family="sans-serif" font-size="45" font-weight="bold"
        x="235" y="95">infbyte</text>
    <polyline
            fill="none"
            points="230 40,240 28,318 28,334 49"
            style="stroke:#2E9F33; stroke-width:5"
    />
    <path fill="#2E9F33" d="M238,45.5 h57 v5 h-57"/>
    <g>
        <circle fill="none" style="stroke:#2E9F33" stroke-width="5" cx="228" cy="47" r="8"/>
        <circle fill="none" style="stroke:#2E9F33" stroke-width="5" cx="338" cy="55" r="8"/>
        <circle fill="none" style="stroke:#2E9F33" stroke-width="5" cx="305" cy="47" r="8"/>
    </g>
    <defs>
        <linearGradient id="gr1">
            <stop
                    offset="20%"
                    stop-color="#2E9F33"
            />
            <stop offset="100%"
                  stop-color="#0F6C13"/>
        </linearGradient>
    </defs>
</svg>
